<?xml version="1.0" encoding="UTF-8"?><svg id="a" xmlns="http://www.w3.org/2000/svg" xmlns:xlink="http://www.w3.org/1999/xlink" viewBox="0 0 317.06 441.65"><defs><style>.c{font-family:Montserrat-Regular, Montserrat;}.d{letter-spacing:-.03em;}.e{fill:#231f20;font-size:29.4px;}.f{fill:url(#b);}.g{letter-spacing:0em;}.h{letter-spacing:0em;}.i{font-family:Montserrat-Bold, Montserrat;}.j{letter-spacing:0em;}</style><linearGradient id="b" x1="47.17" y1="179.27" x2="280.36" y2="179.27" gradientTransform="matrix(1, 0, 0, 1, 0, 0)" gradientUnits="userSpaceOnUse"><stop offset="0" stop-color="#181818"/><stop offset="1" stop-color="#d91f2e"/></linearGradient></defs><path class="f" d="M258.89,78.84c-8.56-29.63-50.22-32.65-75.12-27.62-36.9,7.47-70.32,37.55-62.85,78.21,.87,4.73,2.34,9.35,4.43,13.69,6.3,13.11,17.22,23.49,29.16,31.78,11.94,8.29,25.04,14.75,37.6,22.07,9.16,5.33,18.36,11.45,23.82,20.53,9.35,15.57,4.74,37.09-8.14,49.9-12.87,12.81-32.25,17.58-50.32,15.73-18.64-1.91-37.59-11.49-45.63-28.41-5.25-11.06-5.32-23.77-5.29-36.02,.14-51.44,.27-102.87,.41-154.31,0-3.14-.33-6.89-3.08-8.39-1.71-.93-3.79-.63-5.71-.31-15.58,2.64-31.17,5.27-46.75,7.91-1.35,.23-2.83,.53-3.68,1.61-1.45,1.86,.04,4.73,2.15,5.8,2.1,1.07,4.58,1.03,6.86,1.62,5.04,1.3,8.85,5.64,10.82,10.46,1.97,4.82,2.38,10.11,2.7,15.3,2.17,35.47,1.16,71.06,.5,106.59-.47,25.09-.19,52.1,14.4,72.52,8.66,12.11,21.71,20.64,35.76,25.54,14.05,4.9,29.1,6.37,43.98,6.25,24.77-.2,50.82-5.35,69.39-21.74,14-12.36,22.58-30.64,23.15-49.3,.57-18.66-6.89-37.44-20.1-50.62-11.12-11.09-25.61-17.99-39.64-25.05-14.03-7.05-28.27-14.78-38.2-26.93-10.55-12.9-15.27-32.84-3.07-46.28,18.91-20.83,63.53-23.97,83.83-4.07,8.24,8.08,13.06,19.54,13.08,31.08,2.05-1.18,3.03-3.59,3.74-5.85,3.18-10.03,4.76-21.44,1.8-31.71ZM71.11,215.31l-.08-.08h.08v.08Z"/><text class="e" transform="translate(39.73 354.09)"><tspan class="c"><tspan class="g" x="0" y="0">US MO</tspan><tspan class="j" x="103.14" y="0">RT</tspan><tspan class="g" x="141.21" y="0">G</tspan><tspan class="j" x="164.2" y="0">A</tspan><tspan class="h" x="185.25" y="0">GE</tspan></tspan><tspan class="i"><tspan class="g" x="-16.43" y="27.81">INTERE</tspan><tspan class="j" x="97.79" y="27.81">S</tspan><tspan class="h" x="116.51" y="27.81">T R</tspan><tspan class="d" x="165.41" y="27.81">A</tspan><tspan class="g" x="187.16" y="27.81">TES</tspan></tspan></text></svg>